<?xml version="1.0" encoding="UTF-8"?>
<svg width="195.85" height="195.86" version="1.1" viewBox="0 0 176.26 176.27" xmlns="http://www.w3.org/2000/svg">
  <path d="m81.213 18.412c-9.6221-0.37607-19.618 5.832-20.802 15.983-3.7532 14.626-6.7071 32.243-20.926 40.659-7.7554 6.039-20.354 9.2851-22.138 20.397-2.7198 15.359 6.8572 30.959 19.541 39.006 4.9998 3.1302 11.701 4.0233 16.742 2.5152 2.6254 4.4444 3.6175 3.6253 10.462 11.567 5.777 6.8086 13.985 16.4 24.011 12.692 2.1112-0.89629 8.9606-5.3485 19.052-11.721 5.9348-3.7473-1.1408-15.948-8.3609-17.173-5.187-0.74854-10.741 0.21124-14.628-4.2062-1.8955-1.8166-6.4281-3.4598-7.3639-4.4375 11.716-5.3415 24.587-1.7332 36.214 1.8156 10.833 3.5754 24.945-1.2281 28.239-12.924 4.144-15.589-3.0409-31.397-9.5016-45.294-9.5152-17.425-21.265-34.922-38.584-45.374-2.4858-1.3145-5.1317-2.3452-7.8848-2.9361-1.3325-0.33018-2.6987-0.51695-4.0733-0.57072zm4.4807 8.9977c6.1345 0.91115 10.937 4.9083 15.588 10.157 7.5663 8.5377 13.45 15.369 18.489 24.173 5.7499 10.048 11.04 20.773 13.095 32.166 0.96166 5.3325 2.3932 11.657-0.48346 16.248-1.8201 2.9048-5.6898 4.85-9.1169 4.7588-7.0385-0.18769-12.832-6.1755-18.178-10.758-6.9147-5.9279-12.655-13.305-17.345-21.112-7.6248-12.693-16.155-26.236-17.058-41.016-0.23565-3.8558 0.39698-8.4171 3.1142-11.163 2.904-2.9348 7.811-4.0604 11.895-3.4539z" fill="#fff" stroke-width=".32"/>
  <path d="m81.925 33.152c-7.1847 1.5949-6.2287 10.895-5.1703 16.34 5.0499 22.254 18.117 42.532 35.355 57.32 4.1736 3.2552 11.218 6.8373 15.668 2.9614 5.4014-9.2178 0.26819-20.322-3.0782-29.325-7.5377-17.19-18.223-34.032-33.982-44.712-2.6695-1.496-5.7008-2.6803-8.7922-2.5846z" fill="#fff" stroke-width=".32"/>
  <path d="m141.83 80.956c-0.3739-0.75762-0.8765-1.6734-0.60494-2.7883 0.32125-1.321 2.0038-2.7053 2.0038-2.7053s4.7136-1.6595 11.098-3.5305c6.5004-1.905 8.6458-1.657 8.6458-1.657s1.7357 0.55537 2.2398 1.4427c0.93701 1.6498 1.1542 3.1444 0.71995 4.9533-0.32736 1.3637-1.3177 2.1954-1.3177 2.1954l-10.034 2.091-9.8668 1.2979s-2.52-0.56273-2.8835-1.2993z" fill="#fff" stroke-width=".32"/>
  <path d="m129.89 54.998c-0.52655-0.90206-0.55979-1.3435-0.20799-2.765l0.4186-1.6915 8.0671-5.6052c4.4369-3.0829 8.275-5.6765 8.529-5.7634 0.25403-0.08695 1.2175 0.02107 2.141 0.24005 1.5958 0.37833 1.7362 0.49116 2.8278 2.2723 1.0914 1.7811 1.1282 1.9575 0.74081 3.5511-0.2245 0.92222-0.56199 1.8264-0.75063 2.0092-0.18866 0.18277-4.242 2.4257-9.0076 4.9843l-8.6645 4.6519-1.7334-0.40521c-1.4996-0.35056-1.818-0.55-2.3601-1.4786z" fill="#fff" stroke-width=".32"/>
  <path d="m112.39 32.926c-0.50745-0.89513-0.25041-3.4175-0.25041-3.4175s1.1021-1.8989 2.4363-3.6928c1.1643-1.5656 2.9028-3.9166 3.8634-5.2245 3.1118-4.2372 5.457-7.0653 6.3156-7.6161 0.84101-0.53958 3.3264 0.22747 3.3264 0.22747l2.782 2.4335s0.7914 1.609 0.47253 2.9373c-0.41803 1.7412-1.6814 3.2404-9.764 11.586-2.1342 2.2037-4.0133 4.0699-4.0133 4.0699s-2.0686 0.46277-3.2067 0.18952c-1.0428-0.25035-1.4197-0.53723-1.9616-1.493z" fill="#fff" stroke-width=".32"/>
  <path d="m115.82 29.467c-0.3044-0.53694-0.15023-2.0499-0.15023-2.0499s0.6611-1.1391 1.4614-2.2152c0.6984-0.93909 1.7412-2.3494 2.3174-3.1339 1.8666-2.5417 3.2733-4.2381 3.7885-4.5685 0.50448-0.32364 1.9953 0.13649 1.9953 0.13649l1.6688 1.4597s0.47474 0.96517 0.28346 1.7619c-0.25076 1.0445-1.0086 1.9437-5.857 6.95-1.2802 1.3219-2.4074 2.4413-2.4074 2.4413s-1.2409 0.27757-1.9235 0.11373c-0.62551-0.15017-0.8516-0.32225-1.1766-0.89557z" fill="#c5152b" stroke-width=".19195"/>
  <path d="m133.64 52.775c-0.31402-0.538-0.33384-0.8013-0.12405-1.6491l0.24941-1.0089 4.8114-3.3431c2.6462-1.8387 4.9353-3.3855 5.0868-3.4373 0.15151-0.05185 0.72615 0.01254 1.277 0.14315 0.95174 0.22561 1.0355 0.29298 1.6865 1.3552 0.65095 1.0623 0.67288 1.1675 0.44184 2.1179-0.13408 0.54998-0.33516 1.0893-0.44767 1.1983-0.11246 0.10902-2.53 1.4467-5.3723 2.9727l-5.1677 2.7745-1.0339-0.24162c-0.89438-0.20907-1.0843-0.32802-1.4076-0.8819z" fill="#c5152b" stroke-width=".19085"/>
  <path d="m146.28 79.365c-0.22831-0.46263-0.53519-1.0219-0.36936-1.7026 0.19573-0.80675 1.2236-1.6519 1.2236-1.6519s2.8782-1.0133 6.7768-2.1559c3.9694-1.1633 5.2794-1.0118 5.2794-1.0118s1.0599 0.33914 1.3676 0.88096c0.57218 1.0074 0.70481 1.9201 0.43964 3.0246-0.19991 0.8327-0.80461 1.3406-0.80461 1.3406l-6.1274 1.2769-6.025 0.79257s-1.5388-0.34361-1.7608-0.79335z" fill="#c5152b" stroke-width=".1954"/>
  <path d="m81.054 22.285c-2.0765-0.04968-3.6386-0.01858-5.3721 0.45532-1.1761 0.32146-2.3102 0.8691-3.2949 1.5881-1.0171 0.74263-1.7971 1.4242-2.5987 2.7423-1.4652 2.4095-1.9942 4.3613-2.357 6.9748-1.7356 12.503 3.783 29.886 15.624 49.209 8.7415 14.265 18.128 25.021 27.447 31.454 6.0264 4.1598 11.957 6.1734 16.543 5.6172 1.9299-0.15603 3.8434-0.8636 5.2017-1.8316 6.2896-4.2154 7.8581-14.168 4.3855-27.838-2.5362-9.9846-6.901-19.71-14.161-31.556-7.2593-11.846-13.943-20.15-21.688-26.942-7.6476-6.7073-13.502-9.7221-19.731-9.8715zm1.361 13.671c0.47681 0.03286 1.0722 0.15861 1.8349 0.34804 7.7702 1.9301 18.848 13.206 28.494 29.006 7.5867 12.427 12.175 24.068 13.013 33.015 0.26289 2.8061-0.51861 7.4854-1.3334 7.9848-0.81819 0.50145-4.3681-0.34138-6.672-1.5836-7.5646-4.0787-17.983-15.796-25.934-29.165-8.5818-14.43-13.358-29.317-11.728-36.561 0.54027-2.4017 0.89505-3.1428 2.3255-3.0443zm-19.564 4.5579c-1.4828 5.8785-4.6377 19.119-9.5708 26.222-4.7882 6.894-7.7823 8.9382-19.267 16.211-6.0814 3.8512-9.6603 6.3272-10.438 7.222-1.0032 1.153-1.3235 1.8569-2.093 4.5991-1.0428 3.7164-1.1198 5.9429-0.35284 10.22 1.8362 10.24 9.5168 21.274 18.086 25.985 1.5619 0.85856 2.8364 1.288 5.4802 1.8487 5.0131 1.0631 5.3309 0.95332 16.322-5.6642 10.012-6.0282 13.951-7.8954 19.136-9.0676 9.1397-2.0659 16.063-1.7651 25.892 1.1265 4.1725 1.2275 6.4572 1.8343 8.2665 2.1738-1.2667-0.35444-2.5187-0.76349-3.7354-1.2358-1.7001-0.65988-2.8306-1.356-4.7698-2.6784-1.5201-0.90131-6.3506-4.9545-8.7548-7.3466-2.5124-2.4996-2.5136-2.4986-4.4353-2.7361-5.1112-0.6317-13.104 0.0974-18.553 1.6934-2.6858 0.78691-3.235 0.8437-4.1621 0.4285-4.5206-2.0246-10.821-9.3682-13.67-15.932-1.3273-3.058-2.3477-7.1069-2.4391-9.676l-0.07229-2.0007 2.2632-2.3983c3.9697-4.2082 7.9366-10.568 9.9497-15.955 0.56368-1.5077 0.54764-1.7084-0.37194-4.605-1.2898-4.0629-2.4371-9.3444-2.8315-13.033-0.23678-2.2139-0.28261-3.235 0.12136-5.4015zm33.182 21.81c-0.65806-0.039-1.25 0.01263-1.9642 0.14692-2.5285 0.47534-2.8805 0.96767-1.9713 2.7505 3.6788 7.2144 11.419 19.381 12.37 19.443 0.26735 0.01731 1.1077-0.70713 1.8676-1.6107 1.1947-1.4205 1.4615-1.9794 1.9717-4.1333 0.50853-2.1469 0.52326-2.8196 0.10104-4.8626-0.65574-3.173-2.9942-6.9957-5.5983-9.1512-1.6924-1.4006-2.8523-1.6727-4.4128-2.1792-0.76026-0.24679-1.7057-0.36439-2.3638-0.40344zm-22.775 64.481c-1.6127-0.0302-3.7264 0.83558-9.047 4.2072-3.9699 2.5455-6.8723 3.982-6.9238 4.1963-0.05148 0.21433 1.0093 1.685 1.9598 2.4188 0.95048 0.73383 4.0649 3.9486 6.9223 7.1447 7.3394 8.2092 10.179 10.805 13.5 12.337 2.7459 1.267 5.8563 1.0694 8.4542-0.53953 4.0206-2.49 11.199-6.9945 16.121-10.266 1.9052-1.2667 0.65719-4.562-1.406-6.9708-2.6941-3.1454-5.2711-4.0559-10.379-3.667-1.4359 0.10939-2.9458 0.11749-3.3537 0.0195-0.81552-0.19579-5.6794-3.4929-8.596-5.3721-2.3298-1.5011-4.8796-3.6289-7.2506-3.5077z" fill="#c5152b" stroke-width=".32"/>
  <rect transform="rotate(57.5)" x="117.17" y="20.395" width="3.4648" height="16.582" ry="2.4042" fill="#fff" style="paint-order:normal"/>
  <rect transform="rotate(57.5)" x="108.57" y="20.345" width="3.4648" height="16.582" ry="2.4042" fill="#fff" style="paint-order:normal"/>
  <rect transform="rotate(57.5)" x="124.64" y="18.455" width="3.1175" height="16.632" ry="2.4042" fill="#fff" style="paint-order:normal"/>
  <rect transform="rotate(57.5)" x="154.44" y="8.6549" width="2.4369" height="11.662" ry="1.6909" fill="#fff" style="paint-order:normal"/>
  <rect transform="rotate(57.5)" x="160.43" y="7.5749" width="2.4369" height="11.662" ry="1.6909" fill="#fff" style="paint-order:normal"/>
  <rect transform="rotate(57.5)" x="166.57" y="6.3849" width="2.4369" height="11.662" ry="1.6909" fill="#fff" style="paint-order:normal"/>
  <rect transform="rotate(57.5)" x="101.27" y="18.435" width="2.9365" height="16.686" ry="2.4042" fill="#fff" stroke-width=".95786" style="paint-order:normal"/>
</svg>
