<?xml version="1.0" encoding="UTF-8"?>
<svg width="195.85" height="195.86" version="1.1" viewBox="0 0 176.26 176.27" xmlns="http://www.w3.org/2000/svg">
  <path d="m77.831 19.13c-9.622-0.37605-19.618 5.8321-20.802 15.983-3.7533 14.626-6.7067 32.243-20.926 40.659-7.7554 6.039-20.354 9.2854-22.138 20.397-2.7199 15.359 6.8569 30.959 19.541 39.006 4.9998 3.1302 11.957 3.6257 16.998 2.1172 1.3802 5.3159 7.61 7.2906 10.207 11.965 5.777 6.8086 13.985 16.4 24.011 12.692 6.7109-2.8857 12.112-8.1388 18.085-12.169 5.5364-6.1259-0.17299-15.499-7.3934-16.725-5.187-0.74852-10.741 0.21123-14.628-4.2059-1.8955-1.8166-6.4281-3.4598-7.3639-4.4375 11.716-5.3417 24.587-1.7335 36.214 1.8161 10.833 3.5754 24.945-1.2279 28.239-12.924 4.1446-15.589-3.0414-31.397-9.5016-45.294-9.515-17.425-21.265-34.922-38.584-45.374-2.4858-1.3145-5.1317-2.3452-7.8848-2.9361-1.3325-0.33018-2.6987-0.517-4.0733-0.57072zm4.4807 8.9978c6.1345 0.91111 10.937 4.9086 15.588 10.157 7.5662 8.5376 13.45 15.369 18.489 24.173 5.7498 10.048 11.04 20.773 13.095 32.166 0.96168 5.3325 2.3934 11.657-0.48369 16.248-1.8201 2.9048-5.6898 4.85-9.1165 4.7586-7.0385-0.18768-12.832-6.1755-18.178-10.758-6.9146-5.9279-12.655-13.305-17.345-21.112-7.6248-12.693-16.155-26.236-17.058-41.016-0.23564-3.8559 0.39698-8.4171 3.1142-11.163 2.904-2.9348 7.811-4.0604 11.895-3.4539z" fill="#fff" stroke-width=".32"/>
  <path d="m78.543 33.869c-7.1847 1.5949-6.2291 10.895-5.1701 16.34 5.0501 22.254 18.117 42.532 35.355 57.32 4.1737 3.2552 11.218 6.8372 15.668 2.9611 5.4014-9.2178 0.26846-20.322-3.0782-29.325-7.5376-17.19-18.223-34.032-33.982-44.712-2.6695-1.496-5.7008-2.6803-8.7922-2.5846z" fill="#fff" stroke-width=".32"/>
  <path d="m138.45 81.677c-0.3739-0.75762-0.87648-1.6734-0.60492-2.7883 0.32125-1.321 2.0038-2.7053 2.0038-2.7053s4.7135-1.6595 11.098-3.5305c6.5004-1.905 8.6458-1.657 8.6458-1.657s1.7357 0.5554 2.2397 1.4427c0.937 1.6498 1.1542 3.1444 0.71997 4.9533-0.32738 1.3637-1.3177 2.1954-1.3177 2.1954l-10.034 2.091-9.8668 1.2979s-2.52-0.56279-2.8835-1.2993z" fill="#fff" stroke-width=".32"/>
  <path d="m126.51 55.715c-0.52654-0.90205-0.55976-1.3435-0.208-2.765l0.41864-1.6915 8.0671-5.6052c4.4369-3.0829 8.2749-5.6764 8.5289-5.7633 0.25403-0.08695 1.2175 0.02107 2.141 0.24002 1.5958 0.37827 1.7362 0.49121 2.8277 2.2723 1.0914 1.7811 1.1282 1.9575 0.74088 3.5511-0.2245 0.92222-0.56199 1.8264-0.75065 2.0092-0.18866 0.18277-4.242 2.4257-9.0075 4.9843l-8.6645 4.6519-1.7334-0.40517c-1.4996-0.35056-1.818-0.54998-2.36-1.4786z" fill="#fff" stroke-width=".32"/>
  <path d="m109.01 33.643c-0.50746-0.89514-0.25041-3.4174-0.25041-3.4174s1.1021-1.899 2.4363-3.6929c1.1643-1.5656 2.9028-3.9166 3.8634-5.2245 3.1118-4.2372 5.457-7.0653 6.3155-7.6161 0.84102-0.53957 3.3264 0.22748 3.3264 0.22748l2.782 2.4335s0.79142 1.609 0.47252 2.9373c-0.41803 1.7412-1.6814 3.2404-9.7641 11.586-2.1342 2.2037-4.0133 4.0699-4.0133 4.0699s-2.0686 0.46276-3.2067 0.18954c-1.0428-0.25035-1.4197-0.53723-1.9616-1.493z" fill="#fff" stroke-width=".32"/>
  <path d="m112.44 30.185c-0.3044-0.53694-0.15021-2.0499-0.15021-2.0499s0.66111-1.1391 1.4614-2.2152c0.69842-0.9391 1.7413-2.3494 2.3174-3.1339 1.8666-2.5417 3.2733-4.2381 3.7884-4.5685 0.50447-0.32366 1.9953 0.13645 1.9953 0.13645l1.6688 1.4597s0.47473 0.96515 0.28345 1.7619c-0.25076 1.0445-1.0086 1.9437-5.857 6.95-1.2802 1.3219-2.4074 2.4413-2.4074 2.4413s-1.2409 0.27758-1.9235 0.1137c-0.62552-0.15017-0.8516-0.32225-1.1766-0.89558z" fill="#c5152b" stroke-width=".19195"/>
  <path d="m130.26 53.493c-0.31403-0.538-0.33384-0.8013-0.12405-1.6491l0.24941-1.0089 4.8114-3.3431c2.6462-1.8387 4.9353-3.3855 5.0868-3.4373 0.15151-0.05185 0.72615 0.01254 1.277 0.14315 0.95174 0.22561 1.0355 0.29298 1.6865 1.3552 0.65095 1.0623 0.67289 1.1675 0.44187 2.1179-0.13409 0.54998-0.33516 1.0893-0.44769 1.1983-0.11247 0.10902-2.53 1.4467-5.3723 2.9727l-5.1677 2.7745-1.0339-0.24163c-0.89438-0.20907-1.0843-0.32802-1.4076-0.88188z" fill="#c5152b" stroke-width=".19085"/>
  <path d="m142.9 80.084c-0.22831-0.46263-0.5352-1.0219-0.36937-1.7026 0.19574-0.80675 1.2236-1.6519 1.2236-1.6519s2.8782-1.0133 6.7768-2.1559c3.9694-1.1633 5.2794-1.0118 5.2794-1.0118s1.0599 0.33914 1.3676 0.88096c0.57216 1.0074 0.70481 1.9201 0.43963 3.0246-0.19991 0.8327-0.80464 1.3406-0.80464 1.3406l-6.1274 1.2769-6.025 0.79253s-1.5388-0.34365-1.7608-0.79337z" fill="#c5152b" stroke-width=".1954"/>
  <path d="m77.672 23.003c-2.0765-0.04972-3.6386-0.01857-5.3721 0.4553-1.1761 0.32148-2.3102 0.86908-3.2949 1.5881-1.0171 0.74265-1.7971 1.4242-2.5987 2.7423-1.4652 2.4095-1.9942 4.3613-2.357 6.9748-1.7355 12.503 3.7832 29.886 15.624 49.209 8.7414 14.265 18.128 25.021 27.447 31.454 6.0263 4.1598 11.957 6.1736 16.543 5.6172 1.9299-0.15603 3.8434-0.8636 5.2017-1.8316 6.2896-4.2154 7.858-14.168 4.3857-27.838-2.5362-9.9845-6.9012-19.71-14.161-31.556-7.2595-11.846-13.943-20.15-21.688-26.942-7.6476-6.7073-13.502-9.7225-19.731-9.8718zm1.3612 13.671c0.47681 0.03286 1.0722 0.15861 1.8349 0.34807 7.7702 1.9301 18.848 13.206 28.494 29.006 7.5868 12.427 12.175 24.068 13.013 33.015 0.26283 2.8061-0.51856 7.4854-1.3334 7.9848-0.81818 0.50146-4.3681-0.34143-6.672-1.5837-7.5646-4.0787-17.983-15.796-25.934-29.165-8.5819-14.43-13.358-29.317-11.728-36.561 0.54026-2.4017 0.89506-3.1428 2.3255-3.0443zm-19.564 4.558c-1.4828 5.8785-4.6374 19.119-9.571 26.222-4.7882 6.894-7.7823 8.9382-19.267 16.211-6.0814 3.8512-9.6601 6.3271-10.438 7.2217-1.0032 1.153-1.3235 1.8569-2.093 4.5991-1.0428 3.7164-1.1198 5.9429-0.35287 10.22 1.8362 10.24 9.5166 21.274 18.086 25.985 1.5619 0.8586 2.8365 1.288 5.4802 1.8487 5.0131 1.0631 5.3309 0.95327 16.322-5.6644 10.012-6.0282 13.951-7.8956 19.136-9.0677 9.1397-2.0659 16.063-1.7649 25.892 1.1264 4.1725 1.2275 6.4572 1.8343 8.2665 2.1738-1.2667-0.35444-2.5187-0.76345-3.7354-1.2358-1.7001-0.65987-2.8306-1.356-4.7698-2.6784-1.5201-0.90132-6.3506-4.9545-8.7546-7.3462-2.5124-2.4996-2.5136-2.4986-4.4353-2.7361-5.1112-0.63166-13.104 0.0974-18.553 1.6936-2.6858 0.78689-3.235 0.84375-4.1621 0.42854-4.5206-2.0246-10.821-9.3685-13.67-15.932-1.3273-3.058-2.3477-7.1069-2.4391-9.676l-0.07234-2.0007 2.2632-2.3983c3.9697-4.2082 7.9363-10.568 9.9501-15.955 0.56366-1.5077 0.54763-1.7084-0.37194-4.605-1.2898-4.0629-2.4371-9.3444-2.8317-13.033-0.23679-2.2139-0.28261-3.235 0.12134-5.4015zm33.182 21.81c-0.65806-0.039-1.25 0.01265-1.9642 0.14693-2.5285 0.47534-2.8805 0.96768-1.9713 2.7505 3.6788 7.2144 11.419 19.381 12.37 19.443 0.26735 0.01731 1.1077-0.70715 1.8676-1.6107 1.1947-1.4205 1.4615-1.9794 1.9717-4.1333 0.50855-2.1469 0.52327-2.8196 0.10104-4.8626-0.65571-3.173-2.9942-6.9957-5.5981-9.1508-1.6924-1.4006-2.8524-1.6727-4.4128-2.1792-0.76026-0.24679-1.7057-0.36445-2.3638-0.40346zm-22.675 64.723c-1.6127-0.0302-3.3275 0.99182-8.6151 4.1984-3.8709 2.3474-7.0793 4.4424-7.1308 4.6567-0.05147 0.21434 0.68493 0.9915 1.6354 1.7253 0.95046 0.7338 4.0649 3.9486 6.9223 7.1447 7.3396 8.2095 10.179 10.805 13.5 12.337 2.7459 1.2671 5.8563 1.0694 8.4542-0.53953 4.0206-2.49 14.167-9.6724 15.049-10.652 1.837-2.0407 1.7281-4.1764-0.33512-6.5852-2.6941-3.1454-5.2711-4.0559-10.379-3.6669-1.4359 0.10937-2.9458 0.11752-3.3538 0.0195-0.81552-0.19579-3.8209-2.0729-8.596-5.3721-1.7077-1.1799-3.8182-2.3865-4.6897-2.6797-1.0171-0.34227-1.7287-0.57226-2.4618-0.58596z" fill="#c5152b" stroke-width=".32"/>
  <rect transform="rotate(57)" x="115.52" y="24.408" width="3.4648" height="16.582" ry="2.4042" fill="#fff" style="paint-order:normal"/>
  <rect transform="rotate(57)" x="108.05" y="24.557" width="3.4648" height="16.582" ry="2.4042" fill="#fff" style="paint-order:normal"/>
  <rect transform="rotate(57)" x="122.99" y="22.478" width="3.4648" height="16.582" ry="2.4042" fill="#fff" style="paint-order:normal"/>
  <rect transform="rotate(56.5)" x="153.15" y="14.704" width="2.4369" height="11.662" ry="1.6909" fill="#fff" style="paint-order:normal"/>
  <rect transform="rotate(56.5)" x="159.6" y="13.583" width="2.4369" height="11.662" ry="1.6909" fill="#fff" style="paint-order:normal"/>
  <rect transform="rotate(56.5)" x="166.11" y="12.145" width="2.4369" height="11.662" ry="1.6909" fill="#fff" style="paint-order:normal"/>
</svg>
