<?xml version="1.0" encoding="UTF-8"?>
<svg width="139.56" height="139.56" version="1.1" viewBox="0 0 125.6 125.6" xmlns="http://www.w3.org/2000/svg">
  <path d="m64.33 3.5575c-9.6221-0.37607-19.618 5.832-20.802 15.983-3.7532 14.626-6.7071 32.243-20.926 40.659-7.7554 6.039-20.354 9.2851-22.138 20.397-2.7198 15.359 6.8572 30.959 19.541 39.006 4.9998 3.1302 14.285 3.1024 18.329 0.83466 9.1801-5.1483 10.222-7.1792 21.585-11.598 11.716-5.3415 24.587-1.7332 36.214 1.8156 10.833 3.5754 24.945-1.2281 28.239-12.924 4.144-15.589-3.0409-31.397-9.5016-45.294-9.5152-17.425-21.265-34.922-38.584-45.374-2.4858-1.3145-5.1317-2.3452-7.8848-2.9361-1.3325-0.33018-2.6987-0.51695-4.0733-0.57072zm4.4807 8.9977c6.1345 0.91115 10.937 4.9083 15.588 10.157 7.5663 8.5377 13.45 15.369 18.489 24.173 5.7499 10.048 11.04 20.773 13.095 32.166 0.96166 5.3325 2.3932 11.657-0.48346 16.248-1.8201 2.9048-5.6898 4.85-9.1169 4.7588-7.0385-0.18769-12.832-6.1755-18.178-10.758-6.9147-5.9279-12.655-13.305-17.345-21.112-7.6248-12.693-16.155-26.236-17.058-41.016-0.23565-3.8558 0.39698-8.4171 3.1142-11.163 2.904-2.9348 7.811-4.0604 11.895-3.4539z" fill="#fff" stroke-width=".32"/>
  <path d="m65.042 18.298c-7.1847 1.5949-6.2287 10.895-5.1703 16.34 5.0499 22.254 18.117 42.532 35.355 57.32 4.1736 3.2552 11.218 6.8373 15.668 2.9614 5.4014-9.2178 0.26819-20.322-3.0782-29.325-7.5377-17.19-18.223-34.032-33.982-44.712-2.6695-1.496-5.7008-2.6803-8.7922-2.5846z" fill="#fff" stroke-width=".32"/>
  <path d="m64.171 7.4305c-2.0765-0.04968-3.6386-0.01858-5.3721 0.45532-1.1761 0.32146-2.3102 0.8691-3.2949 1.5881-1.0171 0.74263-1.7971 1.4242-2.5987 2.7423-1.4652 2.4095-1.9942 4.3613-2.357 6.9748-1.7356 12.503 3.783 29.886 15.624 49.209 8.7415 14.265 18.128 25.021 27.447 31.454 6.0264 4.1598 11.957 6.1734 16.543 5.6172 1.9299-0.15603 3.8434-0.8636 5.2017-1.8316 6.2896-4.2154 7.8581-14.168 4.3855-27.838-2.5362-9.9846-6.901-19.71-14.161-31.556-7.2593-11.846-13.943-20.15-21.688-26.942-7.6476-6.7073-13.502-9.7221-19.731-9.8715zm1.361 13.671c0.47681 0.03286 1.0722 0.15861 1.8349 0.34804 7.7702 1.9301 18.848 13.206 28.494 29.006 7.5867 12.427 12.175 24.068 13.013 33.015 0.26289 2.8061-0.51861 7.4854-1.3334 7.9848-0.81819 0.50145-4.3681-0.34138-6.672-1.5836-7.5646-4.0787-17.983-15.796-25.934-29.165-8.5818-14.43-13.358-29.317-11.728-36.561 0.54027-2.4017 0.89505-3.1428 2.3255-3.0443zm-19.564 4.5579c-1.4828 5.8785-4.6377 19.119-9.5708 26.222-4.7882 6.894-7.7823 8.9382-19.267 16.211-6.0814 3.8512-9.6603 6.3272-10.438 7.222-1.0032 1.153-1.3235 1.8569-2.093 4.5991-1.0428 3.7164-1.1198 5.9429-0.35284 10.22 1.8362 10.24 9.5168 21.274 18.086 25.985 1.5619 0.85856 2.8364 1.288 5.4802 1.8487 5.0131 1.0631 5.3309 0.95332 16.322-5.6642 10.012-6.0282 13.951-7.8954 19.136-9.0676 9.1397-2.0659 16.063-1.7651 25.892 1.1265 4.1725 1.2275 6.4572 1.8343 8.2665 2.1738-1.2667-0.35444-2.5187-0.76349-3.7354-1.2358-1.7001-0.65988-2.8306-1.356-4.7698-2.6784-1.5201-0.90131-6.3506-4.9545-8.7548-7.3466-2.5124-2.4996-2.5136-2.4986-4.4353-2.7361-5.1112-0.6317-13.104 0.0974-18.553 1.6934-2.6858 0.78691-3.235 0.8437-4.1621 0.4285-4.5206-2.0246-10.821-9.3682-13.67-15.932-1.3273-3.058-2.3477-7.1069-2.4391-9.676l-0.07229-2.0007 2.2632-2.3983c3.9697-4.2082 7.9366-10.568 9.9497-15.955 0.56368-1.5077 0.54764-1.7084-0.37194-4.605-1.2898-4.0629-2.4371-9.3444-2.8315-13.033-0.23678-2.2139-0.28261-3.235 0.12136-5.4015zm33.182 21.81c-0.65806-0.039-1.25 0.01263-1.9642 0.14692-2.5285 0.47534-2.8805 0.96767-1.9713 2.7505 3.6788 7.2144 11.419 19.381 12.37 19.443 0.26735 0.01731 1.1077-0.70713 1.8676-1.6107 1.1947-1.4205 1.4615-1.9794 1.9717-4.1333 0.50853-2.1469 0.52326-2.8196 0.10104-4.8626-0.65574-3.173-2.9942-6.9957-5.5983-9.1512-1.6924-1.4006-2.8523-1.6727-4.4128-2.1792-0.76026-0.24679-1.7057-0.36439-2.3638-0.40344z" fill="#c5152b" stroke-width=".32"/>
  <rect transform="rotate(57.5)" x="95.571" y="26.653" width="3.4648" height="16.582" ry="2.4042" fill="#fff" style="paint-order:normal"/>
  <rect transform="rotate(57.5)" x="86.971" y="26.603" width="3.4648" height="16.582" ry="2.4042" fill="#fff" style="paint-order:normal"/>
  <rect transform="rotate(57.5)" x="103.04" y="24.713" width="3.1175" height="16.632" ry="2.4042" fill="#fff" style="paint-order:normal"/>
  <rect transform="rotate(57.5)" x="79.671" y="24.693" width="2.9365" height="16.686" ry="2.4042" fill="#fff" stroke-width=".95786" style="paint-order:normal"/>
</svg>
