<?xml version="1.0" encoding="UTF-8"?>
<svg width="4424.2" height="4424.2" version="1.1" viewBox="0 0 3981.8 3981.8" xmlns="http://www.w3.org/2000/svg">
  <path d="m2717.6 493.51c-187.19-170.77-481.94-359.78-690.96-378.35-31.313-2.7832-91.054-13.395-173.64 11.639-187.7 56.893-246.89 234.55-268.14 383.88-47.981 349.7 122.13 986.62 535.7 1635.8 413.57 649.17 918.92 1072.5 1256.1 1176.8 144.32 43.851 330.35 65.288 461.23-80.779 57.592-64.272 73.223-122.9 83.934-152.46 71.497-197.29 24.765-544.3-50.893-786.12-84.275-269.36-212.76-588.27-461.44-978.63-248.69-390.36-483.42-641.58-691.92-831.8zm374.25 1034.2c246.19 386.45 540.03 1003.9 447.71 1271.8-15.54 45.101-74.897 96.476-141.09 81.42-202.11-45.968-439.29-257.85-702.47-588.04-25.242-31.669-132.47-179-132.47-179s167.82 129.07 187.83 139.98c281.88-177.92 228.14-406.42 115.66-582.98s-296.86-321.84-577.24-141.56c1.4382 22.745 47.489 229.39 47.489 229.39s-88.209-159.44-106.24-195.7c-188.03-378.07-279.82-682.57-236.06-885.17 14.33-66.357 85.978-98.442 133.42-93.465 281.85 29.568 717.28 556.82 963.47 943.27zm-1725.4-708.46-0.1042 0.0687-0.057-1e-3v0.0183c-205.45 802.3-365.17 977.24-896.02 1313.8-202.33 128.12-321.45 210.48-347.32 240.24-33.375 38.357-44.049 61.809-69.646 153.02-34.69 123.64-37.272 197.71-11.75 339.98 28.786 160.52 116.52 359.29 194.03 480.96s220.58 285.19 353.9 379.12c118.16 83.257 186.38 112.22 313.09 133.03 93.486 15.35 119.25 15.587 168.12 1.5491 37.897-10.865 162.89-84.019 364.51-213.25 529.37-338.88 755.42-409.7 1569.4-256.83h0.019l0.022-0.052 0.1038-0.066c-166.62-87.672-338.64-249.68-485.05-375.23-74.41-68.453-112.43-122.29-165.82-126.49-201.97-15.318-628.31 87.038-674.55 77.958-43.8-8.6022-157.34-37.215-252.41-138.85-42.204-47.635-82.547-103.54-120.48-163.09-37.937-59.55-71.556-119.74-96.892-178.12-51.933-129.11-29.88-244.1-19.165-287.44 11.311-45.744 284.26-388.88 355.73-578.4 18.753-50.158-13.971-107.37-44.563-203.74-51.915-185.76-126.04-410.13-135.09-598.19zm-737.97 1662.1c1.0438 1.6161 1.9816 3.4135 2.8106 5.3999 6.287 22.124 14.072 63.791 20.952 89.103 21.42 64.895 17.927 64.611-56.554 111.01l-333.27 212.33c-37.37 23.808-68.724 23.71-83.253-25.258-14.529-48.968-6.273-23.154-15.145-62.574-8.872-39.419-18.298-61.649 57.234-109.09l333.27-212.33c34.679-21.407 61.636-27.67 73.954-8.5954zm558.04 875.95c12.082 19.225-4.9872 41.009-39.044 63.393l-333.28 212.31c-74.917 48.406-91.08 30.468-123.06 5.7686-31.977-24.701-12.071-6.3086-50.311-40.171-38.24-33.863-25.078-62.32 12.293-86.128l333.29-212.31c73.53-47.894 74.749-51.179 124.51-4.3399 20.033 16.933 54.506 41.597 71.9 56.645 1.4498 1.5907 2.6826 3.2005 3.7062 4.8295zm-458.31-571.16 0.0102 0.016 46.142 96.406c16.958 40.936-12.399 72.894-49.771 96.702l-330.34 210.47c-37.37 23.808-64.66 42.432-94.574-13.094 0 0-29.147-56.539-41.705-86.824-21.483-51.806 18.388-78.446 55.761-102.25l330.27-210.42c26.734-15.222 67.256-16.272 84.204 8.9994zm224.23 351.97c15.74 26.041-2.336 62.322-27.43 80.118l-330.29 210.4c-37.373 23.809-78.367 48.687-116.24 7.3219-22.14-24.18-61.064-74.491-61.064-74.491-37.681-50.578-9.2688-67.44 28.102-91.247l330.36-210.44c37.372-23.808 78.742-36.909 108.68-4.2396l67.873 82.562 0.01 0.016z" fill="#c7152b" stroke-width="10.646"/>
</svg>
