<?xml version="1.0" encoding="UTF-8"?>
<svg width="11000" height="5e3" version="1.1" viewBox="0 0 9900 4500" xmlns="http://www.w3.org/2000/svg">
  <circle cx="4950" cy="2250" r="1990.9" fill="#fdfdfd" fill-opacity=".77002" stroke-width="25.191" style="paint-order:normal"/>
  <path d="m5463.1 962.94v0.04-0.027c-141.25-128.86-363.67-271.49-521.4-285.5-23.628-2.1003-68.709-10.108-131.03 8.7826-141.63 42.931-186.3 176.98-202.33 289.67-36.149 263.46 91.77 743.01 403.96 1233.2 312.18 490.17 693 809.06 947.23 887.68 108.89 33.092 249.28 49.263 348.04-60.953 43.458-48.498 55.253-92.738 63.335-115.04 53.952-148.87 18.686-410.73-38.406-593.21l-0.024-0.012 0.038 0.014c-63.434-202.73-160.06-442.66-347.79-737.41-187.72-294.75-364.51-483.92-521.56-627.21zm281.73 779.75c186.26 292.37 407.08 757.01 337.54 958.85-11.728 34.035-56.517 72.801-106.47 61.44-152.51-34.683-331.49-194.56-530.09-443.73-19.054-23.901-138.94-174.55-138.94-174.55s208.12 104.26 223.21 112.49c128.33-81.754 129.77-271.96 44.586-405.89-85.187-133.94-258.43-213.26-386.9-131.43 1.0853 17.163 7.6183 249.85 7.6183 249.85s-85.867-172.32-99.483-199.69c-141.89-285.29-211.15-515.06-178.14-667.94 10.814-50.072 64.876-74.282 100.68-70.528 212.32 22.272 540.1 418.77 726.35 711.14zm-1301.3-533.87-0.048-0.01 0.029-0.021-0.032 0.01s-4e-4 0.012 0 0.016l-0.047 0.031-0.043 0.01v0.016c-155.03 605.41-275.56 737.42-676.12 991.34-152.68 96.679-242.57 158.83-262.08 181.28-25.184 28.944-33.238 46.64-52.554 115.47-26.177 93.296-28.126 149.19-8.867 256.55 21.543 120.13 86.834 268.62 145.95 361.55 59.117 92.937 166.44 215.38 266.5 285.88 89.162 62.827 140.64 84.682 236.26 100.39 70.543 11.582 89.986 11.763 126.86 1.1698 28.592-8.1946 122.91-63.396 275.05-160.91 399.46-255.7 570.04-309.15 1184.3-193.79h0.016l0.02-0.037 0.047-0.03 0.015 0.012 0.017-0.026-0.03 0.019 0.022-0.045c-125.72-66.155-255.53-188.4-366-283.13-56.148-51.654-84.84-92.279-125.13-95.45-152.4-11.561-474.11 65.679-509.01 58.818-33.053-6.4921-118.73-28.084-190.46-104.77-31.478-35.528-61.61-77.145-90.194-121.97-28.583-44.824-53.788-90.058-72.822-133.92-39.188-97.423-22.548-184.19-14.463-216.9 8.5355-34.517 214.5-293.44 268.43-436.46 14.151-37.848-10.542-81.021-33.628-153.74-39.172-140.16-95.102-309.47-101.93-451.37zm-561.75 1246.6c0.7884 1.2189 1.495 2.5754 2.1203 4.0743 4.7443 16.695 10.618 48.135 15.81 67.236 16.164 48.969 13.528 48.756-42.674 83.769l-227.18 144.76c-28.2 17.965-51.859 17.891-62.823-19.061-10.963-36.951-4.7325-17.472-11.428-47.218-6.6946-29.745-13.808-46.519 43.188-82.317l227.18-144.75c26.169-16.153 46.51-20.879 55.804-6.4847zm429.79 674.63h-0.01c9.1174 14.507-3.7623 30.945-29.462 47.836l-227.2 144.72c-56.532 36.528-68.728 22.992-92.857 4.3536-24.13-18.639-9.109-4.7601-37.965-30.312-28.856-25.554-18.925-47.028 9.2751-64.992l227.21-144.72c55.485-36.14 56.406-38.618 93.955-3.2733 15.117 12.778 41.129 31.388 54.254 42.744 1.0943 1.2003 2.0249 2.4139 2.7964 3.6437zm-354.53-444.65 0.01 0.013 34.817 72.747c12.796 30.889-9.3559 55.006-37.556 72.972l-224.98 143.34c-28.199 17.965-48.792 32.02-71.365-9.8795 0 0-21.993-42.664-31.469-65.515-16.211-39.093 13.875-59.194 42.076-77.16l224.93-143.31c20.173-11.486 50.749-12.279 63.538 6.7896zm177.89 279.24 0.01 0.012c11.877 19.65-1.7635 47.026-20.699 60.455l-224.94 143.29c-28.201 17.966-59.134 36.738-87.713 5.525-16.706-18.246-46.078-56.209-46.078-56.209-28.434-38.166-6.9926-50.889 21.206-68.855l224.99-143.32c28.201-17.966 59.419-27.85 82.007-3.1979z" fill="#c7152b" stroke-width="8.0335"/>
</svg>
