<?xml version="1.0" encoding="UTF-8"?>
<svg width="4424.2" height="4424.2" version="1.1" viewBox="0 0 3981.8 3981.8" xmlns="http://www.w3.org/2000/svg">
  <circle cx="1990.9" cy="1990.9" r="1990.9" fill="#fdfdfd" fill-opacity=".77002" stroke-width="25.191" style="paint-order:normal"/>
  <path d="m2503.9 703.82v-0.0271c-141.25-128.86-363.67-271.49-521.4-285.51-23.629-2.1004-68.709-10.108-131.03 8.7828-141.63 42.931-186.3 176.99-202.33 289.67-36.168 263.6 91.898 743.5 404.03 1233.4s692.94 808.83 947.13 887.45c108.9 33.092 249.27 49.263 348.04-60.954 43.459-48.498 55.253-92.739 63.336-115.04 53.953-148.88 18.684-410.74-38.408-593.21l-0.023-0.012c-63.488-202.91-160.23-443.07-347.86-737.6-187.64-294.53-364.42-483.7-521.48-626.99zm619.32 1738.6c-11.727 34.035-56.517 72.801-106.47 61.44-152.51-34.684-331.49-194.56-530.09-443.73-19.054-23.901-127.33-156.33-127.33-156.33s169.19 103.45 184.29 111.69c177.24-112.91 157.11-290.12 72.05-423.64-85.061-133.52-237.16-226.65-414.4-113.74 1.0852 17.163 23.339 214.22 23.339 214.22s-74.267-154.1-87.876-181.47c-141.89-285.29-211.15-515.07-178.13-667.95 10.814-50.073 64.877-74.283 100.68-70.528 212.33 22.274 540.14 418.82 726.38 711.17 186.24 292.35 407.1 757.03 337.56 958.88zm-1638.9-1492.8-0.032 2e-3c0 5e-3 0 0.0138 9e-4 0.0182zm-0.031 0.0198-0.047 0.03-0.043 5.5e-4 -1e-3 0.0152c-155.03 605.41-275.56 737.42-676.13 991.39-152.68 96.678-242.57 158.83-262.08 181.28-25.185 28.944-33.238 46.641-52.554 115.47-26.177 93.297-28.126 149.19-8.8668 256.55 21.606 120.48 87.216 269.49 146.18 362.04 58.964 92.554 166.28 214.99 266.35 285.49 89.162 62.827 140.64 84.682 236.26 100.39 70.544 11.582 89.986 11.763 126.86 1.1695 28.592-8.1942 122.91-63.396 275.06-160.91 399.46-255.71 570.04-309.16 1184.3-193.8l0.014 0.01 0.019-0.039 0.046-0.03c-125.73-66.155-255.53-188.4-366.01-283.14-56.148-51.654-84.84-92.28-125.12-95.45-152.4-11.561-474.12 65.678-509.01 58.826-33.053-6.4921-118.73-28.082-190.47-104.77-31.632-35.703-61.906-77.552-90.338-122.17-28.517-44.745-53.737-90-72.78-133.88-39.189-97.423-22.547-184.2-14.462-216.9 8.5355-34.518 214.5-293.45 268.43-436.46 14.151-37.849-10.543-81.022-33.628-153.74-39.172-140.16-95.106-309.47-101.93-451.37zm1235.3 1939-0.031 0.02c0 0.01 0.012 0 0.016 0.01zm-1797-692.44c0.78836 1.219 1.495 2.5753 2.1205 4.0743 4.7442 16.695 10.618 48.135 15.81 67.236 16.164 48.969 13.529 48.756-42.674 83.769l-227.19 144.76c-28.2 17.965-51.859 17.891-62.823-19.061-10.963-36.951-4.733-17.472-11.428-47.218-6.6948-29.745-13.808-46.519 43.189-82.317l227.19-144.75c26.169-16.153 46.51-20.879 55.805-6.485zm429.82 674.68h-0.01c9.1171 14.507-3.7624 30.945-29.461 47.836l-227.2 144.73c-56.532 36.528-68.728 22.992-92.857 4.3538-24.13-18.638-9.109-4.7602-37.965-30.312-28.856-25.553-18.924-47.028 9.2751-64.993l227.21-144.72c55.485-36.14 56.406-38.619 93.956-3.2738 15.117 12.778 41.129 31.389 54.255 42.744 1.0943 1.2004 2.0249 2.414 2.7965 3.6437zm-354.56-444.69 8e-3 0.013 34.817 72.747c12.796 30.89-9.3555 55.006-37.556 72.972l-224.98 143.34c-28.199 17.965-48.793 32.02-71.366-9.8796 0 0-21.993-42.664-31.469-65.516-16.211-39.093 13.875-59.194 42.076-77.16l224.93-143.31c20.173-11.486 50.75-12.278 63.539 6.7912zm177.91 279.27 0.01 0.014c11.877 19.65-1.7626 47.028-20.698 60.456l-224.94 143.29c-28.201 17.966-59.134 36.738-87.713 5.5246-16.706-18.246-46.078-56.209-46.078-56.209-28.434-38.166-6.9928-50.89 21.206-68.855l225-143.32c28.201-17.966 59.419-27.85 82.007-3.1982z" fill="#c7152b" stroke-width="8.0335"/>
</svg>
