<?xml version="1.0" encoding="UTF-8"?>
<svg width="4424.2" height="4424.2" version="1.1" viewBox="0 0 3981.8 3981.8" xmlns="http://www.w3.org/2000/svg">
  <circle cx="1990.9" cy="1990.9" r="1990.9" fill="#fdfdfd" fill-opacity=".77002" stroke-width="25.191" style="paint-order:normal"/>
  <path d="m2566.1 664.14c-141.25-128.86-363.67-271.49-521.4-285.51-23.629-2.1004-68.709-10.108-131.03 8.7828-141.63 42.931-186.3 176.99-202.33 289.67-36.206 263.88 92.162 744.5 404.24 1234.4 312.08 489.86 693.42 809.32 947.87 888.03 108.9 33.09 249.28 49.266 348.04-60.955 43.459-48.5 55.254-92.74 63.336-115.04 53.951-148.87 18.687-410.73-38.404-593.21-63.594-203.26-160.55-443.91-348.2-738.47-187.66-294.56-364.78-484.13-522.12-627.67zm282.41 780.38c185.78 291.61 407.5 757.54 337.84 959.73-11.726 34.033-56.517 72.801-106.47 61.44-152.51-34.688-331.49-194.57-530.08-443.73-19.047-23.897-99.958-135.07-99.958-135.07s126.64 97.393 141.73 105.63c212.71-134.26 172.16-306.68 87.275-439.92-84.883-133.24-224.01-242.86-435.58-106.82 1.0852 17.163 35.835 173.09 35.835 173.09s-66.562-120.31-80.171-147.68c-141.89-285.29-211.15-515.07-178.13-667.95 10.814-50.073 64.878-74.283 100.68-70.528 212.69 22.312 541.26 420.18 727.03 711.79zm-1302-534.6-0.079 0.0514-0.043-6.5e-4v0.0153c-155.03 605.41-275.56 737.42-676.13 991.39-152.68 96.678-242.57 158.83-262.08 181.28-25.185 28.944-33.239 46.641-52.555 115.47-26.177 93.297-28.126 149.19-8.8668 256.55 21.722 121.13 87.926 271.12 146.42 362.93 58.49 91.812 166.45 215.2 267.05 286.08 89.16 62.826 140.64 84.681 236.26 100.39 70.544 11.583 89.987 11.762 126.86 1.169 28.597-8.1984 122.91-63.4 275.06-160.91 399.46-255.72 570.04-309.16 1184.2-193.81h0.016l0.017-0.04 0.078-0.05c-125.73-66.157-255.53-188.41-366.02-283.15-56.15-51.654-84.843-92.28-125.13-95.451-152.4-11.559-474.12 65.679-509.01 58.827-33.052-6.4912-118.73-28.082-190.46-104.77-31.847-35.945-62.29-78.132-90.917-123.07-28.627-44.936-53.996-90.356-73.114-134.41-39.189-97.423-22.547-184.2-14.462-216.9 8.5354-34.518 214.5-293.45 268.43-436.46 14.151-37.849-10.542-81.023-33.627-153.74-39.174-140.17-95.112-309.48-101.93-451.39zm-556.87 1254.2c0.78843 1.219 1.4954 2.5758 2.1208 4.0748 4.7442 16.695 10.618 48.136 15.81 67.237 16.164 48.969 13.528 48.755-42.675 83.768l-251.48 160.23c-28.199 17.966-51.859 17.892-62.823-19.06-10.963-36.951-4.7335-17.472-11.428-47.218-6.6948-29.745-13.808-46.52 43.189-82.318l251.48-160.22c26.169-16.153 46.511-20.88 55.806-6.486zm421.1 660.99c9.1169 14.507-3.7633 30.945-29.463 47.836l-251.49 160.21c-56.532 36.527-68.729 22.991-92.858 4.3527-24.13-18.639-9.1086-4.7603-37.964-30.313-28.856-25.553-18.924-47.027 9.2762-64.992l251.5-160.21c55.485-36.14 56.405-38.62 93.955-3.2749 15.117 12.777 41.13 31.389 54.256 42.744 1.094 1.2003 2.0243 2.4149 2.7966 3.6442zm-345.84-431 0.01 0.013 34.819 72.748c12.796 30.89-9.3563 55.005-37.557 72.971l-249.27 158.82c-28.199 17.965-48.792 32.019-71.365-9.8805 0 0-21.994-42.664-31.47-65.516-16.211-39.093 13.876-59.195 42.077-77.161l249.22-158.78c20.173-11.486 50.751-12.278 63.54 6.7909zm169.2 265.6c11.878 19.65-1.7626 47.028-20.698 60.457l-249.23 158.77c-28.201 17.966-59.135 36.739-87.714 5.5249-16.706-18.246-46.078-56.21-46.078-56.21-28.434-38.166-6.9942-50.89 21.206-68.855l249.28-158.8c28.201-17.966 59.419-27.852 82.007-3.1993l51.217 62.301 0.01 0.013z" fill="#c7152b" stroke-width="8.0335"/>
</svg>
