<?xml version="1.0" ?><!DOCTYPE svg  PUBLIC '-//W3C//DTD SVG 1.1//EN'  'http://www.w3.org/Graphics/SVG/1.1/DTD/svg11.dtd'><svg enable-background="new 0 0 128 128" id="Social_Icons" version="1.1" viewBox="0 0 128 128" xml:space="preserve" xmlns="http://www.w3.org/2000/svg" xmlns:xlink="http://www.w3.org/1999/xlink"><g id="_x36__stroke"><g id="Reddit"><rect clip-rule="evenodd" fill="none" fill-rule="evenodd" height="128" width="128"/><path clip-rule="evenodd" d="M128,62.855c0-8.407-6.9-15.244-15.384-15.244    c-3.672,0-7.044,1.284-9.692,3.421c-9.38-5.842-21.284-9.362-34.044-10.107l6.656-20.852l18.292,4.269    c0.48,6.599,6.048,11.823,12.828,11.823c7.092,0,12.864-5.719,12.864-12.751c0-7.027-5.772-12.747-12.864-12.747    c-4.96,0-9.272,2.798-11.42,6.885L73.98,12.593c-1.78-0.416-3.58,0.599-4.132,2.327l-8.264,25.882    c-13.748,0.333-26.672,3.864-36.74,10.048c-2.612-2.025-5.896-3.238-9.46-3.238C6.9,47.611,0,54.448,0,62.855    c0,5.196,2.64,9.79,6.66,12.541c-0.168,1.209-0.256,2.426-0.256,3.658c0,10.507,6.164,20.281,17.356,27.519    c10.728,6.94,24.928,10.761,39.98,10.761s29.252-3.821,39.98-10.761c11.192-7.237,17.356-17.011,17.356-27.519    c0-1.122-0.076-2.235-0.216-3.341C125.148,73.005,128,68.253,128,62.855 M106.656,17.595c3.24,0,5.876,2.612,5.876,5.818    c0,3.21-2.636,5.822-5.876,5.822c-3.24,0-5.876-2.612-5.876-5.822C100.78,20.207,103.416,17.595,106.656,17.595 M36.296,72.284    c0-4.736,4.012-8.712,8.792-8.712c4.784,0,8.664,3.975,8.664,8.712c0,4.74-3.88,8.585-8.664,8.585    C40.308,80.869,36.296,77.024,36.296,72.284 M85.072,97.532c-4.456,4.411-11.328,6.556-21.008,6.556    c-0.02,0-0.044-0.004-0.068-0.004c-0.02,0-0.044,0.004-0.068,0.004c-9.68,0-16.548-2.144-21-6.556    c-1.368-1.356-1.368-3.547,0-4.899c1.364-1.352,3.576-1.352,4.944,0c3.072,3.044,8.324,4.526,16.056,4.526    c0.024,0,0.048,0.004,0.068,0.004c0.024,0,0.048-0.004,0.068-0.004c7.732,0,12.988-1.482,16.064-4.526    c1.368-1.356,3.58-1.352,4.944,0C86.436,93.988,86.436,96.18,85.072,97.532 M83.04,80.869c-4.784,0-8.804-3.845-8.804-8.585    c0-4.74,4.02-8.712,8.804-8.712s8.664,3.971,8.664,8.712C91.704,77.024,87.824,80.869,83.04,80.869" fill="#FF5700" fill-rule="evenodd" id="Reddit_1_"/></g></g></svg>